<svg width="84" height="35" viewBox="0 0 84 35" fill="none" xmlns="http://www.w3.org/2000/svg">
<path d="M3.18184 17.2429L0.00929272 0.257658C-0.000770003 0.226003 -0.00269658 0.192324 0.00368984 0.159728C0.0100763 0.127132 0.0245699 0.0966711 0.0458341 0.0711541C0.0670983 0.045637 0.0944477 0.025887 0.125358 0.0137273C0.156268 0.00156759 0.189742 -0.00261013 0.222693 0.00157938H5.28454C5.34677 -0.00322707 5.40842 0.0163523 5.45648 0.0561754C5.50453 0.0959985 5.53521 0.152945 5.54204 0.214979L7.21368 11.666H8.06728L9.74034 0.214979C9.74682 0.152798 9.77741 0.0956337 9.82555 0.0557413C9.87368 0.0158489 9.93553 -0.00359549 9.99784 0.00157938H15.0583C15.0912 -0.00249154 15.1247 0.00175076 15.1556 0.0139183C15.1865 0.0260858 15.2139 0.0457929 15.2353 0.0712453C15.2566 0.0966976 15.2713 0.127086 15.2779 0.159645C15.2845 0.192204 15.2828 0.225896 15.2731 0.257658L12.4847 17.2429L15.2731 34.0972C15.2831 34.1291 15.285 34.1629 15.2785 34.1957C15.2721 34.2284 15.2575 34.2591 15.2361 34.2847C15.2147 34.3103 15.1872 34.3302 15.1561 34.3424C15.125 34.3547 15.0914 34.3589 15.0583 34.3547H10.0021C9.93958 34.3599 9.87753 34.3402 9.82936 34.3C9.78118 34.2599 9.75074 34.2023 9.7446 34.1399L8.07155 22.6889H7.21795L5.54631 34.1399C5.53982 34.2022 5.50929 34.2595 5.4612 34.2996C5.41311 34.3397 5.35126 34.3595 5.28881 34.3547H0.229807C0.196786 34.3586 0.163313 34.3542 0.132441 34.3418C0.101569 34.3295 0.0742809 34.3096 0.053064 34.284C0.0318471 34.2584 0.017377 34.2279 0.010974 34.1953C0.00457099 34.1627 0.00643881 34.1289 0.0164065 34.0972L3.18184 17.2429Z" fill="#49D0FF"/>
<path d="M16.6722 0.214805C16.6706 0.186348 16.6749 0.157865 16.6851 0.131224C16.6952 0.104584 16.7109 0.08039 16.731 0.0602342C16.7512 0.0400784 16.7754 0.0244173 16.802 0.014278C16.8287 0.00413864 16.8572 -0.000248914 16.8856 0.001405H22.0328C22.0613 -0.000229561 22.0899 0.00415987 22.1166 0.0142866C22.1433 0.0244134 22.1676 0.0400515 22.1878 0.0601821C22.2081 0.0803127 22.2239 0.104484 22.2342 0.131124C22.2445 0.157765 22.2491 0.186278 22.2476 0.214805L23.5764 19.3013H24.43L25.5539 0.214805C25.5539 0.044085 25.6393 0.001405 25.7687 0.001405H29.6284C29.7565 0.001405 29.8433 0.044085 29.8433 0.214805L30.9601 19.3013H31.8137L33.1439 0.214805C33.1422 0.186221 33.1466 0.157609 33.1568 0.130864C33.167 0.104119 33.1828 0.079853 33.2032 0.0596741C33.2235 0.0394952 33.2478 0.0238632 33.2747 0.0138177C33.3015 0.00377224 33.3301 -0.000458706 33.3587 0.001405H38.5002C38.5288 -0.000458706 38.5574 0.00377224 38.5842 0.0138177C38.611 0.0238632 38.6354 0.0394952 38.6557 0.0596741C38.676 0.079853 38.6918 0.104119 38.702 0.130864C38.7123 0.157609 38.7167 0.186221 38.715 0.214805L36.3577 34.097C36.3595 34.1257 36.3553 34.1545 36.3451 34.1814C36.335 34.2084 36.3193 34.2328 36.2989 34.2531C36.2786 34.2735 36.2541 34.2892 36.2272 34.2994C36.2003 34.3095 36.1715 34.3137 36.1428 34.3119H29.1519C29.0238 34.3119 28.9385 34.2692 28.9385 34.097L28.1233 20.5817H27.2697L26.4545 34.097C26.4545 34.2692 26.3691 34.3119 26.2397 34.3119H19.2444C19.2158 34.3135 19.1872 34.3091 19.1605 34.2989C19.1337 34.2887 19.1094 34.2729 19.0893 34.2526C19.0691 34.2323 19.0535 34.2079 19.0434 34.1811C19.0334 34.1543 19.0291 34.1256 19.031 34.097L16.6722 0.214805Z" fill="white"/>
<path d="M45.904 19.7294V29.1646H51.2646C51.2932 29.1629 51.3219 29.1673 51.3487 29.1776C51.3755 29.1878 51.3999 29.2035 51.4202 29.2238C51.4405 29.2441 51.4562 29.2685 51.4664 29.2953C51.4766 29.3221 51.4811 29.3507 51.4794 29.3794V34.097C51.4813 34.1257 51.477 34.1544 51.4669 34.1813C51.4568 34.2083 51.441 34.2327 51.4207 34.253C51.4003 34.2734 51.3759 34.2891 51.349 34.2993C51.3221 34.3094 51.2933 34.3137 51.2646 34.3118H40.542C40.5134 34.3134 40.4848 34.309 40.458 34.2988C40.4313 34.2886 40.407 34.2728 40.3868 34.2525C40.3666 34.2322 40.351 34.2078 40.341 34.181C40.3309 34.1542 40.3267 34.1255 40.3286 34.097V0.214717C40.3269 0.18626 40.3313 0.157776 40.3414 0.131136C40.3516 0.104496 40.3672 0.0803018 40.3874 0.0601461C40.4075 0.0399903 40.4317 0.0243292 40.4584 0.0141898C40.485 0.00405053 40.5135 -0.000337024 40.542 0.00131689H50.8364C50.8648 -0.000337024 50.8933 0.00405053 50.92 0.0141898C50.9466 0.0243292 50.9708 0.0399903 50.9909 0.0601461C51.0111 0.0803018 51.0268 0.104496 51.0369 0.131136C51.047 0.157776 51.0514 0.18626 51.0498 0.214717V4.93371C51.0514 4.96216 51.047 4.99065 51.0369 5.01729C51.0268 5.04393 51.0111 5.06812 50.9909 5.08827C50.9708 5.10843 50.9466 5.12409 50.92 5.13423C50.8933 5.14437 50.8648 5.14876 50.8364 5.14711H45.904V14.5822H49.9785C50.007 14.5808 50.0355 14.5854 50.0622 14.5957C50.0888 14.606 50.113 14.6218 50.1331 14.642C50.1533 14.6623 50.1689 14.6866 50.179 14.7133C50.1892 14.74 50.1935 14.7685 50.1919 14.7971V19.5146C50.1938 19.5432 50.1895 19.5718 50.1795 19.5986C50.1694 19.6255 50.1538 19.6498 50.1336 19.6701C50.1135 19.6905 50.0892 19.7062 50.0624 19.7165C50.0357 19.7267 50.0071 19.7311 49.9785 19.7294H45.904Z" fill="white"/>
<path d="M68.077 34.0976C68.077 34.2697 67.9916 34.3124 67.8636 34.3124H62.7164C62.5883 34.3124 62.5015 34.2697 62.5015 34.0976L62.0747 25.5203H59.0715L58.6447 34.0976C58.6447 34.2697 58.5593 34.3124 58.4299 34.3124H53.2812C53.1518 34.3124 53.0664 34.2697 53.0664 34.0976L54.9543 0.215353C54.9543 0.0446331 55.0396 0.00195312 55.1677 0.00195312H65.9799C66.1094 0.00195312 66.1948 0.0446331 66.1948 0.215353L68.077 34.0976ZM59.3717 20.3731H61.7731L61.0006 5.15059H60.147L59.3717 20.3731Z" fill="white"/>
<path d="M83.7979 34.3119H78.5654C78.5123 34.3048 78.4617 34.2855 78.4173 34.2557C78.3728 34.2258 78.3359 34.1861 78.3093 34.1397C77.7516 33.2861 77.7516 31.7809 77.7516 30.9672L77.837 18.8745H75.2634V34.097C75.2653 34.1257 75.261 34.1545 75.2509 34.1814C75.2407 34.2084 75.225 34.2328 75.2046 34.2531C75.1843 34.2735 75.1599 34.2892 75.1329 34.2994C75.106 34.3095 75.0772 34.3137 75.0485 34.3119H69.9028C69.8741 34.3137 69.8453 34.3095 69.8184 34.2994C69.7915 34.2892 69.767 34.2735 69.7467 34.2531C69.7263 34.2328 69.7106 34.2084 69.7004 34.1814C69.6903 34.1545 69.686 34.1257 69.6879 34.097V0.214805C69.6863 0.186221 69.6907 0.157609 69.7009 0.130864C69.7111 0.104119 69.7269 0.079853 69.7472 0.0596741C69.7675 0.0394952 69.7919 0.0238632 69.8187 0.0138177C69.8455 0.00377224 69.8742 -0.000458706 69.9028 0.001405H79.1231C82.5545 0.001405 83.4124 2.57359 83.4124 6.86293V12.7812C83.4124 15.0973 82.0822 15.7845 81.3965 15.8698V16.7234C82.0395 16.8088 83.4124 17.4945 83.4124 19.8106V30.9629C83.4124 31.6913 83.4124 33.1922 83.9274 34.0501C83.9481 34.0736 83.9613 34.1027 83.9653 34.1337C83.9694 34.1647 83.9642 34.1963 83.9503 34.2243C83.9365 34.2524 83.9146 34.2757 83.8874 34.2912C83.8603 34.3068 83.8292 34.314 83.7979 34.3119ZM77.837 13.7259V5.14719H75.2634V13.7259H77.837Z" fill="white"/>
</svg>
